# xmcd
#
# Track frame offsets:
#	150
#	20029
#	46019
#	62559
#	90672
#	117306
#	140178
#	156313
#	177942
#	193951
#	222497
#
# Disc length: 3297 seconds
# Revision: 0
# Processed by: cddbd v1.5.2PL0 Copyright (c) Steve Scherf et al.
# Submitted via: dBpowerAMP V12.0
#
DISCID=a50cdf0b
DTITLE=David Michael Miller - Same Soil
DYEAR=2015
DGENRE=Blues 
TTITLE0=All The Blues To You
TTITLE1=Just Ride
TTITLE2=Got Them Blues
TTITLE3=Friend Of Mine
TTITLE4=Doing Me In, Doing Me Wrong
TTITLE5=Shoes To Shine
TTITLE6=Needle To The Wheel
TTITLE7=If'in You Hear Me
TTITLE8=Born To Lose
TTITLE9=Too Early In The Mornin
TTITLE10=Man's Got Things To Do
EXTD=
EXTT0=
EXTT1=
EXTT2=
EXTT3=
EXTT4=
EXTT5=
EXTT6=
EXTT7=
EXTT8=
EXTT9=
EXTT10=
PLAYORDER=
